<svg xmlns="http://www.w3.org/2000/svg" viewBox="0 0 600 700" fill="none">
  <rect width="600" height="700" fill="#0e2238"></rect>
  <g transform="translate(300,260) scale(1.6)">

  <g stroke="#f5f1e8" stroke-width="4.32">
    <line x1="0" y1="-82" x2="77.987" y2="-25.339"></line>
    <line x1="77.987" y1="-25.339" x2="48.198" y2="66.339"></line>
    <line x1="48.198" y1="66.339" x2="-48.198" y2="66.339"></line>
    <line x1="-48.198" y1="66.339" x2="-77.987" y2="-25.339"></line>
    <line x1="-77.987" y1="-25.339" x2="0" y2="-82"></line>
  </g>
  <g stroke="#a9c4d4" stroke-width="3.672">
    <line x1="29.788" y1="-41" x2="48.198" y2="15.661"></line>
    <line x1="48.198" y1="15.661" x2="0" y2="50.679"></line>
    <line x1="0" y1="50.679" x2="-48.198" y2="15.661"></line>
    <line x1="-48.198" y1="15.661" x2="-29.788" y2="-41"></line>
    <line x1="-29.788" y1="-41" x2="29.788" y2="-41"></line>
  </g>
  <g stroke="#a9c4d4" stroke-width="3.3696">
    <line x1="0" y1="-82" x2="29.788" y2="-41"></line>
    <line x1="0" y1="-82" x2="-29.788" y2="-41"></line>
    <line x1="77.987" y1="-25.339" x2="48.198" y2="15.661"></line>
    <line x1="77.987" y1="-25.339" x2="29.788" y2="-41"></line>
    <line x1="48.198" y1="66.339" x2="0" y2="50.679"></line>
    <line x1="48.198" y1="66.339" x2="48.198" y2="15.661"></line>
    <line x1="-48.198" y1="66.339" x2="-48.198" y2="15.661"></line>
    <line x1="-48.198" y1="66.339" x2="0" y2="50.679"></line>
    <line x1="-77.987" y1="-25.339" x2="-29.788" y2="-41"></line>
    <line x1="-77.987" y1="-25.339" x2="-48.198" y2="15.661"></line>
  </g>
  <circle r="4" fill="#b8954a"></circle>

  </g>
  <g font-family="Marcellus, serif" font-size="58" text-anchor="middle">
    <text x="270" y="558" fill="#f5f1e8">airtowater</text>
    <text x="430" y="558" font-family="&#39;JetBrains Mono&#39;, monospace" font-size="32" fill="#b8954a">.mx</text>
  </g>
  <g font-family="&#39;JetBrains Mono&#39;, monospace" font-size="16" letter-spacing="5" text-anchor="middle" fill="#b8954a">
    <text x="300" y="600">137  ·  432  ·  9</text>
  </g>
  <g font-family="&#39;JetBrains Mono&#39;, monospace" font-size="13" letter-spacing="4.5" text-anchor="middle" fill="#f5f1e8" fill-opacity="0.55">
    <text x="300" y="638">AGUA DEL AIRE · SACRED GEOMETRY</text>
  </g>
</svg>