<svg xmlns="http://www.w3.org/2000/svg" viewBox="-100 -100 200 200" fill="none" stroke-linejoin="round" stroke-linecap="round">
  <g stroke="#f5f1e8" stroke-width="4.32">
    <line x1="0" y1="-82" x2="77.987" y2="-25.339"></line>
    <line x1="77.987" y1="-25.339" x2="48.198" y2="66.339"></line>
    <line x1="48.198" y1="66.339" x2="-48.198" y2="66.339"></line>
    <line x1="-48.198" y1="66.339" x2="-77.987" y2="-25.339"></line>
    <line x1="-77.987" y1="-25.339" x2="0" y2="-82"></line>
  </g>
  <g stroke="#a9c4d4" stroke-width="3.672">
    <line x1="29.788" y1="-41" x2="48.198" y2="15.661"></line>
    <line x1="48.198" y1="15.661" x2="0" y2="50.679"></line>
    <line x1="0" y1="50.679" x2="-48.198" y2="15.661"></line>
    <line x1="-48.198" y1="15.661" x2="-29.788" y2="-41"></line>
    <line x1="-29.788" y1="-41" x2="29.788" y2="-41"></line>
  </g>
  <g stroke="#a9c4d4" stroke-width="3.3696">
    <line x1="0" y1="-82" x2="29.788" y2="-41"></line>
    <line x1="0" y1="-82" x2="-29.788" y2="-41"></line>
    <line x1="77.987" y1="-25.339" x2="48.198" y2="15.661"></line>
    <line x1="77.987" y1="-25.339" x2="29.788" y2="-41"></line>
    <line x1="48.198" y1="66.339" x2="0" y2="50.679"></line>
    <line x1="48.198" y1="66.339" x2="48.198" y2="15.661"></line>
    <line x1="-48.198" y1="66.339" x2="-48.198" y2="15.661"></line>
    <line x1="-48.198" y1="66.339" x2="0" y2="50.679"></line>
    <line x1="-77.987" y1="-25.339" x2="-29.788" y2="-41"></line>
    <line x1="-77.987" y1="-25.339" x2="-48.198" y2="15.661"></line>
  </g>
  <circle r="4" fill="#b8954a"></circle>
</svg>